<svg xmlns="http://www.w3.org/2000/svg" width="1200" height="1200" viewBox="0 0 1200 1200" role="img" aria-label="symbolizer hex logo"><metadata><rdf:RDF xmlns:rdf="http://www.w3.org/1999/02/22-rdf-syntax-ns#" xmlns:dc="http://purl.org/dc/elements/1.1/"><rdf:Description><dc:creator>RealFaviconGenerator</dc:creator><dc:source>https://realfavicongenerator.net</dc:source></rdf:Description></rdf:RDF></metadata><defs>
    <filter id="softShadow" x="-20%" y="-20%" width="140%" height="140%">
      <feDropShadow dx="0" dy="10" stdDeviation="10" flood-color="#000000" flood-opacity="0.22"></feDropShadow>
    </filter>
    <linearGradient id="redGrad" x1="0" y1="0" x2="0" y2="1">
      <stop offset="0" stop-color="#a72b30"></stop>
      <stop offset="1" stop-color="#922327"></stop>
    </linearGradient>
  </defs><g filter="url(#softShadow)">
    <polygon points="600.0,75.0 1054.7,337.5 1054.7,862.5 600.0,1125.0 145.3,862.5 145.3,337.5" fill="#7f1e23"></polygon>
    <polygon points="600.0,97.0 1035.6,348.5 1035.6,851.5 600.0,1103.0 164.4,851.5 164.4,348.5" fill="url(#redGrad)"></polygon>
    <polygon points="600.0,130.0 1007.0,365.0 1007.0,835.0 600.0,1070.0 193.0,835.0 193.0,365.0" fill="none" stroke="#fff7ec" stroke-width="28" stroke-linejoin="round"></polygon>
  </g><g fill="#fff7ec" stroke="#fff7ec" stroke-linecap="round" stroke-linejoin="round">
    <text x="420" y="408" text-anchor="middle" font-family="Inter, Avenir, Helvetica, Arial, sans-serif" font-size="138" font-weight="800">R</text>
    <line x1="502" y1="355" x2="642" y2="355" stroke-width="18"></line>
    <path d="M642 355 L600 318 M642 355 L600 392" fill="none" stroke-width="18"></path>
    <text x="778" y="410" text-anchor="middle" font-family="Georgia, Times New Roman, serif" font-size="156" font-style="italic">ℒ</text>
  </g><g fill="none" stroke="#fff7ec" stroke-linecap="round" stroke-linejoin="round">
    <path d="M284 610 V505 M284 610 H454" stroke-width="12"></path>
    <line x1="304" y1="590" x2="442" y2="520" stroke-width="10"></line>
  </g><g fill="#fff7ec">
    <circle cx="314" cy="582" r="10"></circle>
    <circle cx="334" cy="552" r="10"></circle>
    <circle cx="365" cy="576" r="10"></circle>
    <circle cx="386" cy="542" r="10"></circle>
    <circle cx="413" cy="563" r="10"></circle>
  </g><g stroke="#fff7ec" stroke-linecap="round" stroke-linejoin="round" fill="none">
    <line x1="500" y1="560" x2="595" y2="560" stroke-width="14"></line>
    <path d="M595 560 L560 528 M595 560 L560 592" stroke-width="14"></path>
  </g><text x="800" y="585" text-anchor="middle" fill="#fff7ec" font-family="Georgia, Times New Roman, serif" font-size="76" font-style="italic">y ~ βx + ε</text><g stroke="#fff7ec" stroke-linecap="round" fill="#fff7ec">
    <line x1="240" y1="710" x2="565" y2="710" stroke-width="14"></line>
    <circle cx="600" cy="710" r="15"></circle>
    <line x1="635" y1="710" x2="960" y2="710" stroke-width="14"></line>
  </g><text x="600" y="860" text-anchor="middle" fill="#fff7ec" font-family="Inter, Avenir, Helvetica, Arial, sans-serif" font-size="116" font-weight="800" letter-spacing="-4">symbolizer</text></svg>